<svg width="35" height="36" viewBox="0 0 35 36" fill="none" xmlns="http://www.w3.org/2000/svg">
<path d="M23.6833 17.4875L25.9729 15.198L20.5042 9.7292L18.2146 12.0188L12.1771 5.99587C11.0396 4.85837 9.1875 4.85837 8.05 5.99587L5.27917 8.7667C4.14167 9.9042 4.14167 11.7563 5.27917 12.8938L11.3021 18.9167L4.375 25.8584V31.3271H9.84375L16.7854 24.3855L22.8083 30.4084C24.1938 31.7938 26.0604 31.2834 26.9354 30.4084L29.7063 27.6375C30.8438 26.5 30.8438 24.648 29.7063 23.5105L23.6833 17.4875ZM13.3875 16.8459L7.35 10.823L10.1062 8.05212L11.9583 9.9042L10.2375 11.6396L12.2938 13.6959L14.0292 11.9605L16.1438 14.075L13.3875 16.8459ZM24.8792 28.3521L18.8563 22.3292L21.6271 19.5584L23.7417 21.673L22.0063 23.4084L24.0625 25.4646L25.7979 23.7292L27.65 25.5813L24.8792 28.3521ZM30.2021 10.9688C30.3373 10.8339 30.4445 10.6736 30.5177 10.4972C30.5909 10.3208 30.6286 10.1317 30.6286 9.94066C30.6286 9.74966 30.5909 9.56054 30.5177 9.38412C30.4445 9.20771 30.3373 9.04745 30.2021 8.91254L26.7896 5.50003C26.1042 4.81462 25.1562 5.07712 24.7333 5.50003L22.0646 8.16878L27.5333 13.6375L30.2021 10.9688Z" fill="white"/>
</svg>
