<svg width="35" height="36" viewBox="0 0 35 36" fill="none" xmlns="http://www.w3.org/2000/svg">
<path d="M4.375 18.2022C4.375 21.4251 5.70208 24.3272 7.81667 26.4272L4.375 29.8689H13.125V21.1189L9.85833 24.3855C8.21733 22.7459 7.29419 20.522 7.29167 18.2022C7.2916 16.3939 7.85269 14.6302 8.89753 13.1544C9.94237 11.6786 11.4195 10.5633 13.125 9.96261V6.91469C8.09375 8.21261 4.375 12.7626 4.375 18.2022ZM16.0417 25.4939H18.9583V22.5772H16.0417V25.4939ZM30.625 6.53552H21.875V15.2855L25.1417 12.0189C26.7827 13.6585 27.7058 15.8824 27.7083 18.2022C27.7084 20.0104 27.1473 21.7741 26.1025 23.25C25.0576 24.7258 23.5805 25.841 21.875 26.4418V29.4897C26.9062 28.1918 30.625 23.6418 30.625 18.2022C30.625 14.9793 29.2979 12.0772 27.1833 9.97719L30.625 6.53552ZM16.0417 19.6605H18.9583V10.9105H16.0417V19.6605Z" fill="white"/>
</svg>
