<svg width="35" height="36" viewBox="0 0 35 36" fill="none" xmlns="http://www.w3.org/2000/svg">
<path d="M29.5618 28.4473C29.5618 29.6187 28.6037 30.5769 27.4323 30.5769H7.56653C6.39513 30.5769 5.437 29.6187 5.437 28.4473V8.58156C5.437 7.41015 6.39513 6.45203 7.56653 6.45203H27.4323C28.6037 6.45203 29.5618 7.41015 29.5618 8.58156V28.4473ZM29.5618 14.0317L27.3831 12.5639C27.4268 12.3758 27.4531 12.18 27.4531 11.9777C27.4531 10.5623 26.3058 9.4139 24.8893 9.4139C23.4729 9.4139 22.3256 10.5612 22.3256 11.9777C22.3256 12.5344 22.505 13.0484 22.8068 13.4695L18.0961 20.673C17.9047 20.627 17.7045 20.5997 17.4989 20.5997C16.8678 20.5997 16.2914 20.8283 15.844 21.2067L12.6908 19.3922C12.7072 19.2762 12.7181 19.1592 12.7181 19.0389C12.7181 17.6236 11.5708 16.4752 10.1543 16.4752C8.73794 16.4752 7.5906 17.6225 7.5906 19.0389C7.5906 19.39 7.66169 19.7247 7.78966 20.0298L5.43481 22.2141V24.5383L8.93263 21.2931C9.29575 21.49 9.71138 21.6016 10.1533 21.6016C10.8314 21.6016 11.4461 21.3369 11.9043 20.9059L14.9811 22.6767C14.9504 22.8342 14.934 22.9961 14.934 23.1623C14.934 24.5777 16.0814 25.725 17.4978 25.725C18.9142 25.725 20.0615 24.5777 20.0615 23.1623C20.0615 22.5728 19.8603 22.0314 19.5256 21.5983L24.2036 14.4452C24.4223 14.5053 24.6509 14.5403 24.8883 14.5403C25.4822 14.5403 26.0268 14.3369 26.4622 13.9978L29.5608 16.0858L29.5618 14.0317Z" fill="white"/>
</svg>
