<svg width="35" height="36" viewBox="0 0 35 36" fill="none" xmlns="http://www.w3.org/2000/svg">
<path d="M27.3438 33.2412V31.4639C27.3438 31.3135 27.2207 31.1904 27.0703 31.1904H18.5938V28.0459H24.6094C24.7598 28.0459 24.8828 27.9229 24.8828 27.7725V16.0146H10.1172V27.7725C10.1172 27.9229 10.2402 28.0459 10.3906 28.0459H16.2695V31.1904H7.92969C7.7793 31.1904 7.65625 31.3135 7.65625 31.4639V33.2412C7.65625 33.3916 7.7793 33.5146 7.92969 33.5146H27.0703C27.2207 33.5146 27.3438 33.3916 27.3438 33.2412ZM24.6094 8.3584H18.5938V5.21387H27.0703C27.2207 5.21387 27.3438 5.09082 27.3438 4.94043V3.16309C27.3438 3.0127 27.2207 2.88965 27.0703 2.88965H7.92969C7.7793 2.88965 7.65625 3.0127 7.65625 3.16309V4.94043C7.65625 5.09082 7.7793 5.21387 7.92969 5.21387H16.2695V8.3584H10.3906C10.2402 8.3584 10.1172 8.48145 10.1172 8.63184V13.8271H24.8828V8.63184C24.8828 8.48145 24.7598 8.3584 24.6094 8.3584Z" fill="white"/>
</svg>
