<svg xmlns="http://www.w3.org/2000/svg" viewBox="0 0 230.74 70.26"><defs><style>.cls-1,.cls-2{fill:#1d1d1b;}.cls-2{fill-rule:evenodd;}.cls-3{fill:#e63329;}.cls-4,.cls-6,.cls-8{fill:none;stroke-miterlimit:3.86;stroke-width:0.07px;}.cls-4{stroke:#e63329;}.cls-5{fill:#f49712;}.cls-6{stroke:#f49712;}.cls-7{fill:#fcbd1c;}.cls-8{stroke:#fcbd1c;}</style></defs><g id="Capa_2" data-name="Capa 2"><g id="Capa_1-2" data-name="Capa 1"><polygon class="cls-1" points="62.97 23.26 68.91 23.26 68.91 49.1 62.97 49.1 62.97 23.26 62.97 23.26"/><path class="cls-1" d="M92.88,43.73l.92,4.6a17.11,17.11,0,0,1-6.94,1.19q-6.52,0-10.26-3.56a12.44,12.44,0,0,1-3.73-9.43,12.87,12.87,0,0,1,4.07-10A14.85,14.85,0,0,1,87.4,22.84,15.42,15.42,0,0,1,94.11,24l-1.23,4.68a13,13,0,0,0-5.21-1,8.54,8.54,0,0,0-6.22,2.26,8.32,8.32,0,0,0-2.33,6.25,8.31,8.31,0,0,0,2.29,6.16,8.54,8.54,0,0,0,6.3,2.27,14.19,14.19,0,0,0,5.17-.88Z"/><path class="cls-2" d="M120.18,36q0,6.15-3.61,9.86a12.68,12.68,0,0,1-9.5,3.71,12.07,12.07,0,0,1-9.2-3.69,13.23,13.23,0,0,1-3.49-9.46A13.56,13.56,0,0,1,98,26.65a12.43,12.43,0,0,1,9.4-3.81,12.19,12.19,0,0,1,9.27,3.68A13.13,13.13,0,0,1,120.18,36Zm-19.55.27a10.06,10.06,0,0,0,1.82,6.21,6,6,0,0,0,9.6,0,10.18,10.18,0,0,0,1.81-6.31A10.08,10.08,0,0,0,112,30a5.94,5.94,0,0,0-9.59,0,10.23,10.23,0,0,0-1.82,6.26Z"/><polygon class="cls-1" points="62.27 57.84 64.45 57.84 64.45 67.31 62.27 67.31 62.27 57.84 62.27 57.84"/><path class="cls-1" d="M66.29,67.31V62.64c0-.67,0-1.41-.06-2.2h1.88l.1,1h.06a2.49,2.49,0,0,1,2.18-1.13,2.29,2.29,0,0,1,1.84.79A3.23,3.23,0,0,1,73,63.28v4H70.8V63.56Q70.8,62,69.66,62a1.14,1.14,0,0,0-.83.35,1.32,1.32,0,0,0-.37,1v3.93Z"/><path class="cls-1" d="M74.3,67l.39-1.54a4.38,4.38,0,0,0,.94.37,3.71,3.71,0,0,0,1,.15c.62,0,.94-.19.94-.56a.5.5,0,0,0-.23-.44,3.34,3.34,0,0,0-.81-.34c-1.35-.41-2-1.1-2-2a2,2,0,0,1,.79-1.63,3.19,3.19,0,0,1,2.08-.65,4.7,4.7,0,0,1,2,.41L79,62.18a3.62,3.62,0,0,0-1.55-.39c-.56,0-.84.18-.84.55a.48.48,0,0,0,.25.41,3.8,3.8,0,0,0,.9.37,3.26,3.26,0,0,1,1.45.82,1.84,1.84,0,0,1,.46,1.29,2,2,0,0,1-.8,1.63,3.65,3.65,0,0,1-2.23.61A5.07,5.07,0,0,1,74.3,67Z"/><path class="cls-1" d="M81.28,59.14l2.12-.57v1.87H85V62H83.4v2.42a1.76,1.76,0,0,0,.2,1,.78.78,0,0,0,.66.27,2.33,2.33,0,0,0,.66-.07l0,1.65a4.16,4.16,0,0,1-1.42.2,2.25,2.25,0,0,1-1.61-.59,2.75,2.75,0,0,1-.63-2.07V62h-.93v-1.6h.93v-1.3Z"/><path class="cls-2" d="M88.41,67.31H86.23V60.44h2.18v6.87Zm.12-8.91a1.07,1.07,0,0,1-.33.81,1.22,1.22,0,0,1-.89.33,1.2,1.2,0,0,1-.88-.33,1,1,0,0,1-.34-.81,1.08,1.08,0,0,1,.34-.82,1.25,1.25,0,0,1,.88-.32,1.24,1.24,0,0,1,.88.32,1.08,1.08,0,0,1,.34.82Z"/><path class="cls-1" d="M90.45,59.14l2.13-.57v1.87h1.56V62H92.58v2.42a1.67,1.67,0,0,0,.2,1,.75.75,0,0,0,.65.27,2.36,2.36,0,0,0,.67-.07v1.65a4.12,4.12,0,0,1-1.42.2,2.26,2.26,0,0,1-1.61-.59,2.75,2.75,0,0,1-.63-2.07V62h-.92v-1.6h.92v-1.3Z"/><path class="cls-1" d="M102.05,60.44v4.65q0,1.11.06,2.22h-1.89l-.1-1h-.05a2.44,2.44,0,0,1-2.21,1.16A2.26,2.26,0,0,1,96,66.7a3.35,3.35,0,0,1-.66-2.23v-4h2.18v3.67c0,1.07.38,1.61,1.13,1.61a1.2,1.2,0,0,0,1.19-1.22V60.44Z"/><path class="cls-1" d="M104.1,59.14l2.13-.57v1.87h1.56V62h-1.56v2.42a1.67,1.67,0,0,0,.2,1,.75.75,0,0,0,.65.27,2.28,2.28,0,0,0,.66-.07l0,1.65a4.12,4.12,0,0,1-1.42.2,2.26,2.26,0,0,1-1.61-.59,2.75,2.75,0,0,1-.63-2.07V62h-.92v-1.6h.92v-1.3Z"/><path class="cls-1" d="M118.92,65.34l.34,1.69a6.31,6.31,0,0,1-2.55.44A5.23,5.23,0,0,1,113,66.16a4.56,4.56,0,0,1-1.37-3.46,4.74,4.74,0,0,1,1.49-3.65,5.49,5.49,0,0,1,3.84-1.37,5.67,5.67,0,0,1,2.46.44l-.45,1.71a4.82,4.82,0,0,0-1.91-.38,3.15,3.15,0,0,0-2.28.83,3.06,3.06,0,0,0-.86,2.29,3,3,0,0,0,.84,2.26,3.12,3.12,0,0,0,2.31.84,5.15,5.15,0,0,0,1.9-.33Z"/><path class="cls-2" d="M126.23,63.25v2.39a10.53,10.53,0,0,0,.11,1.67h-2l-.13-.69h-.05a2.51,2.51,0,0,1-2,.85,2.26,2.26,0,0,1-1.65-.62,2,2,0,0,1-.63-1.49,2.18,2.18,0,0,1,1.07-2,5.71,5.71,0,0,1,3.08-.69v-.08c0-.57-.43-.86-1.3-.86a3.9,3.9,0,0,0-2,.52l-.41-1.37a5.52,5.52,0,0,1,2.74-.64,3.15,3.15,0,0,1,2.3.77,2.94,2.94,0,0,1,.78,2.2Zm-2.09,1.52v-.71c-1.38,0-2.07.36-2.07,1.07a.78.78,0,0,0,.23.6.89.89,0,0,0,.64.22,1.29,1.29,0,0,0,.82-.31,1.08,1.08,0,0,0,.38-.87Z"/><path class="cls-1" d="M128.05,59.14l2.12-.57v1.87h1.56V62h-1.56v2.42a1.76,1.76,0,0,0,.2,1,.76.76,0,0,0,.66.27,2.33,2.33,0,0,0,.66-.07v1.65a4.08,4.08,0,0,1-1.42.2,2.28,2.28,0,0,1-1.61-.59,2.8,2.8,0,0,1-.62-2.07V62h-.93v-1.6h.93v-1.3Z"/><path class="cls-2" d="M138.84,63.25v2.39a9.31,9.31,0,0,0,.12,1.67h-2l-.12-.69h-.06a2.48,2.48,0,0,1-2,.85,2.28,2.28,0,0,1-1.65-.62,2,2,0,0,1-.63-1.49,2.18,2.18,0,0,1,1.07-2,5.71,5.71,0,0,1,3.08-.69v-.08c0-.57-.43-.86-1.3-.86a3.9,3.9,0,0,0-1.95.52L133,60.92a5.52,5.52,0,0,1,2.74-.64,3.15,3.15,0,0,1,2.3.77,2.94,2.94,0,0,1,.78,2.2Zm-2.09,1.52v-.71c-1.38,0-2.07.36-2.07,1.07a.78.78,0,0,0,.23.6.89.89,0,0,0,.64.22,1.29,1.29,0,0,0,.82-.31,1.08,1.08,0,0,0,.38-.87Z"/><polygon class="cls-1" points="140.6 67.31 140.6 57.3 142.78 57.3 142.78 67.31 140.6 67.31 140.6 67.31"/><path class="cls-2" d="M150.39,63.25v2.39a9.31,9.31,0,0,0,.12,1.67h-2l-.12-.69h-.06a2.48,2.48,0,0,1-2,.85,2.26,2.26,0,0,1-1.64-.62,2,2,0,0,1-.64-1.49,2.18,2.18,0,0,1,1.07-2,5.71,5.71,0,0,1,3.08-.69v-.08c0-.57-.43-.86-1.29-.86a3.91,3.91,0,0,0-2,.52l-.41-1.37a5.54,5.54,0,0,1,2.75-.64,3.14,3.14,0,0,1,2.29.77,2.94,2.94,0,0,1,.78,2.2Zm-2.09,1.52v-.71c-1.38,0-2.07.36-2.07,1.07a.75.75,0,0,0,.24.6.86.86,0,0,0,.64.22,1.28,1.28,0,0,0,.81-.31,1.08,1.08,0,0,0,.38-.87Zm-3.18-7.31h2l1.24,2.15h-1.49l-1.76-2.15Z"/><path class="cls-2" d="M159.75,57.3h2.18v8c0,.75,0,1.43,0,2H160l-.08-1h0a2.44,2.44,0,0,1-2.25,1.2,2.77,2.77,0,0,1-2.15-1,3.71,3.71,0,0,1-.87-2.54,3.81,3.81,0,0,1,.92-2.66,3,3,0,0,1,2.26-1,2.17,2.17,0,0,1,1.88.79h0V57.3Zm0,6.89v-.8a1.52,1.52,0,0,0-.37-1,1.26,1.26,0,0,0-1-.41,1.37,1.37,0,0,0-1.13.53,2.2,2.2,0,0,0-.41,1.4,2.06,2.06,0,0,0,.41,1.36,1.37,1.37,0,0,0,1.12.51,1.43,1.43,0,0,0,.93-.37,1.5,1.5,0,0,0,.42-1.18Z"/><polygon class="cls-1" points="163.3 57.57 165.22 57.57 164.9 61.39 163.62 61.39 163.3 57.57 163.3 57.57"/><path class="cls-2" d="M175.7,62.49a5,5,0,0,1-1.33,3.62,4.65,4.65,0,0,1-3.48,1.36,4.44,4.44,0,0,1-3.37-1.36,4.84,4.84,0,0,1-1.28-3.47,4.94,4.94,0,0,1,1.33-3.56,4.57,4.57,0,0,1,3.45-1.4,4.47,4.47,0,0,1,3.4,1.35,4.83,4.83,0,0,1,1.28,3.46Zm-7.17.1a3.65,3.65,0,0,0,.67,2.28,2.2,2.2,0,0,0,3.52,0,4.3,4.3,0,0,0,0-4.58,2.19,2.19,0,0,0-3.52,0,3.73,3.73,0,0,0-.67,2.3Z"/><path class="cls-1" d="M177.08,67.31V62.64c0-.67,0-1.41-.06-2.2h1.88l.1,1h.06a2.48,2.48,0,0,1,2.18-1.13,2.31,2.31,0,0,1,1.84.79,3.23,3.23,0,0,1,.69,2.21v4h-2.18V63.56q0-1.53-1.14-1.53a1.14,1.14,0,0,0-.83.35,1.32,1.32,0,0,0-.37,1v3.93Z"/><path class="cls-1" d="M190.54,65.54l.27,1.59a5.26,5.26,0,0,1-2,.34,3.77,3.77,0,0,1-2.71-1,3.37,3.37,0,0,1-1-2.57,3.45,3.45,0,0,1,1.09-2.63,4.11,4.11,0,0,1,3-1,5,5,0,0,1,1.7.28l-.35,1.61a3.2,3.2,0,0,0-1.25-.23,2,2,0,0,0-1.36,3.31,2,2,0,0,0,1.4.51,3.64,3.64,0,0,0,1.29-.22Z"/><path class="cls-2" d="M198.73,63.8a3.47,3.47,0,0,1-1.06,2.67,4.06,4.06,0,0,1-5.31,0,3.36,3.36,0,0,1-1-2.57,3.52,3.52,0,0,1,1-2.64,3.85,3.85,0,0,1,2.76-1,3.56,3.56,0,0,1,2.61,1,3.41,3.41,0,0,1,1,2.53Zm-5.17.08a2.56,2.56,0,0,0,.39,1.48,1.26,1.26,0,0,0,1.07.56,1.24,1.24,0,0,0,1-.56,2.53,2.53,0,0,0,.4-1.49,2.63,2.63,0,0,0-.38-1.47,1.22,1.22,0,0,0-1.06-.57,1.24,1.24,0,0,0-1.08.57,2.58,2.58,0,0,0-.39,1.48Z"/><polygon class="cls-1" points="200.07 67.31 200.07 57.3 202.25 57.3 202.25 67.31 200.07 67.31 200.07 67.31"/><path class="cls-2" d="M211,63.8a3.47,3.47,0,0,1-1.06,2.67,4.06,4.06,0,0,1-5.31,0,3.36,3.36,0,0,1-1-2.57,3.52,3.52,0,0,1,1-2.64,3.86,3.86,0,0,1,2.76-1,3.56,3.56,0,0,1,2.61,1,3.37,3.37,0,0,1,1,2.53Zm-5.17.08a2.49,2.49,0,0,0,.4,1.48,1.24,1.24,0,0,0,1.06.56,1.23,1.23,0,0,0,1.05-.56,2.46,2.46,0,0,0,.4-1.49,2.63,2.63,0,0,0-.38-1.47,1.2,1.2,0,0,0-1.05-.57,1.24,1.24,0,0,0-1.09.57,2.58,2.58,0,0,0-.39,1.48Z"/><path class="cls-2" d="M219.06,62.48v3.81a4.22,4.22,0,0,1-.93,3,4,4,0,0,1-3,1,5.42,5.42,0,0,1-2.56-.54l.44-1.65a4.13,4.13,0,0,0,2.06.53,1.9,1.9,0,0,0,1.36-.46,1.8,1.8,0,0,0,.49-1.35v-.45h0a2.27,2.27,0,0,1-1.93.91,2.8,2.8,0,0,1-2.15-.93,3.47,3.47,0,0,1-.84-2.41,3.72,3.72,0,0,1,.93-2.61,2.93,2.93,0,0,1,2.27-1,2.15,2.15,0,0,1,2,1h0l.06-.83h1.89q-.06.81-.06,2Zm-2.18,1.71v-.91a1.39,1.39,0,0,0-.34-1,1.15,1.15,0,0,0-.91-.39,1.26,1.26,0,0,0-1,.53,2.19,2.19,0,0,0-.42,1.41,2.09,2.09,0,0,0,.39,1.3,1.27,1.27,0,0,0,1.06.52,1.3,1.3,0,0,0,.85-.33,1.4,1.4,0,0,0,.4-1.15Z"/><path class="cls-2" d="M223,67.31h-2.18V60.44H223v6.87Zm.12-8.91a1.07,1.07,0,0,1-.33.81,1.22,1.22,0,0,1-.89.33,1.2,1.2,0,0,1-.88-.33,1,1,0,0,1-.34-.81,1.08,1.08,0,0,1,.34-.82,1.25,1.25,0,0,1,.88-.32,1.24,1.24,0,0,1,.88.32,1.08,1.08,0,0,1,.34.82Z"/><path class="cls-2" d="M230.63,63.25v2.39a10.53,10.53,0,0,0,.11,1.67h-2l-.13-.69h0a2.51,2.51,0,0,1-2,.85,2.26,2.26,0,0,1-1.65-.62,2,2,0,0,1-.63-1.49,2.18,2.18,0,0,1,1.07-2,5.71,5.71,0,0,1,3.08-.69v-.08c0-.57-.44-.86-1.3-.86a3.9,3.9,0,0,0-1.95.52l-.41-1.37a5.5,5.5,0,0,1,2.74-.64,3.16,3.16,0,0,1,2.3.77,2.94,2.94,0,0,1,.78,2.2Zm-2.09,1.52v-.71c-1.38,0-2.07.36-2.07,1.07a.78.78,0,0,0,.23.6.89.89,0,0,0,.64.22,1.29,1.29,0,0,0,.82-.31,1.08,1.08,0,0,0,.38-.87Z"/><path class="cls-3" d="M16,12.24c1.18,2.79,5.72,3.52,10.14,1.64s7-5.65,5.87-8.44S26.24,1.93,21.82,3.8s-7,5.66-5.86,8.44Zm-4.64,4.09C9.24,11.44,13.61,4.9,21.07,1.73S36.27,0,38.35,4.86s-2.29,11.43-9.75,14.6-15.2,1.77-17.28-3.13Z"/><path class="cls-4" d="M16,12.24c1.18,2.79,5.72,3.52,10.14,1.64s7-5.65,5.87-8.44S26.24,1.93,21.82,3.8s-7,5.66-5.86,8.44Zm-4.64,4.09C9.24,11.44,13.61,4.9,21.07,1.73S36.27,0,38.35,4.86s-2.29,11.43-9.75,14.6-15.2,1.77-17.28-3.13Z"/><path class="cls-5" d="M23.2,49.47c0,5,4.8,9,10.71,9s10.7-4,10.7-9-4.79-9-10.7-9-10.71,4-10.71,9Zm-8-2.58c0-8.69,8.35-15.73,18.65-15.73s18.66,7,18.66,15.73S44.16,62.62,33.85,62.62s-18.65-7-18.65-15.73Z"/><path class="cls-6" d="M23.2,49.47c0,5,4.8,9,10.71,9s10.7-4,10.7-9-4.79-9-10.7-9-10.71,4-10.71,9Zm-8-2.58c0-8.69,8.35-15.73,18.65-15.73s18.66,7,18.66,15.73S44.16,62.62,33.85,62.62s-18.65-7-18.65-15.73Z"/><path class="cls-7" d="M1.56,35.71c.44,3.13,2,5.5,3.56,5.28s2.41-2.92,2-6.05-2-5.5-3.56-5.28-2.4,2.92-2,6.05ZM.23,36c-.78-5.56.84-10.38,3.62-10.77S9.52,29,10.3,34.54,9.46,44.92,6.68,45.31,1,41.51.23,36Z"/><path class="cls-8" d="M1.56,35.71c.44,3.13,2,5.5,3.56,5.28s2.41-2.92,2-6.05-2-5.5-3.56-5.28-2.4,2.92-2,6.05ZM.23,36c-.78-5.56.84-10.38,3.62-10.77S9.52,29,10.3,34.54,9.46,44.92,6.68,45.31,1,41.51.23,36Z"/></g></g></svg>