<?xml version="1.0" encoding="UTF-8" standalone="no"?>
<!-- Created with Inkscape (http://www.inkscape.org/) -->

<svg
   width="61.05019mm"
   height="18.599188mm"
   viewBox="0 0 61.05019 18.599188"
   version="1.1"
   id="svg1"
   xml:space="preserve"
   xmlns="http://www.w3.org/2000/svg"
   xmlns:svg="http://www.w3.org/2000/svg"><defs
     id="defs1"><style
       id="style1">.cls-1,.cls-2{fill:#1d1d1b;}.cls-2{fill-rule:evenodd;}.cls-3{fill:#e63329;}.cls-4,.cls-6,.cls-8{fill:none;stroke-miterlimit:3.86;stroke-width:0.07px;}.cls-4{stroke:#e63329;}.cls-5{fill:#f49712;}.cls-6{stroke:#f49712;}.cls-7{fill:#fcbd1c;}.cls-8{stroke:#fcbd1c;}</style></defs><g
     id="layer1"
     transform="translate(-74.50258,-139.20041)"><g
       id="Capa_1-2"
       data-name="Capa 1"
       transform="matrix(0.26458333,0,0,0.26458333,74.502814,139.19824)"><polygon
         class="cls-1"
         points="68.91,49.1 62.97,49.1 62.97,23.26 68.91,23.26 "
         id="polygon1"
         style="fill:#ffffff;fill-opacity:1" /><path
         class="cls-1"
         d="m 92.88,43.73 0.92,4.6 a 17.11,17.11 0 0 1 -6.94,1.19 q -6.52,0 -10.26,-3.56 a 12.44,12.44 0 0 1 -3.73,-9.43 12.87,12.87 0 0 1 4.07,-10 14.85,14.85 0 0 1 10.46,-3.69 15.42,15.42 0 0 1 6.71,1.16 l -1.23,4.68 a 13,13 0 0 0 -5.21,-1 8.54,8.54 0 0 0 -6.22,2.26 8.32,8.32 0 0 0 -2.33,6.25 8.31,8.31 0 0 0 2.29,6.16 8.54,8.54 0 0 0 6.3,2.27 14.19,14.19 0 0 0 5.17,-0.88 z"
         id="path1"
         style="fill:#ffffff;fill-opacity:1" /><path
         class="cls-2"
         d="m 120.18,36 q 0,6.15 -3.61,9.86 a 12.68,12.68 0 0 1 -9.5,3.71 12.07,12.07 0 0 1 -9.2,-3.69 13.23,13.23 0 0 1 -3.49,-9.46 13.56,13.56 0 0 1 3.62,-9.77 12.43,12.43 0 0 1 9.4,-3.81 12.19,12.19 0 0 1 9.27,3.68 13.13,13.13 0 0 1 3.51,9.48 z m -19.55,0.27 a 10.06,10.06 0 0 0 1.82,6.21 6,6 0 0 0 9.6,0 10.18,10.18 0 0 0 1.81,-6.31 A 10.08,10.08 0 0 0 112,30 a 5.94,5.94 0 0 0 -9.59,0 10.23,10.23 0 0 0 -1.82,6.26 z"
         id="path2"
         style="fill:#ffffff;fill-opacity:1" /><polygon
         class="cls-1"
         points="64.45,67.31 62.27,67.31 62.27,57.84 64.45,57.84 "
         id="polygon2"
         style="fill:#ffffff;fill-opacity:1" /><path
         class="cls-1"
         d="m 66.29,67.31 v -4.67 c 0,-0.67 0,-1.41 -0.06,-2.2 h 1.88 l 0.1,1 h 0.06 a 2.49,2.49 0 0 1 2.18,-1.13 2.29,2.29 0 0 1 1.84,0.79 3.23,3.23 0 0 1 0.71,2.18 v 4 H 70.8 V 63.56 Q 70.8,62 69.66,62 a 1.14,1.14 0 0 0 -0.83,0.35 1.32,1.32 0 0 0 -0.37,1 v 3.93 z"
         id="path3"
         style="fill:#ffffff;fill-opacity:1" /><path
         class="cls-1"
         d="m 74.3,67 0.39,-1.54 a 4.38,4.38 0 0 0 0.94,0.37 3.71,3.71 0 0 0 1,0.15 c 0.62,0 0.94,-0.19 0.94,-0.56 a 0.5,0.5 0 0 0 -0.23,-0.44 3.34,3.34 0 0 0 -0.81,-0.34 c -1.35,-0.41 -2,-1.1 -2,-2 a 2,2 0 0 1 0.79,-1.63 3.19,3.19 0 0 1 2.08,-0.65 4.7,4.7 0 0 1 2,0.41 L 79,62.18 a 3.62,3.62 0 0 0 -1.55,-0.39 c -0.56,0 -0.84,0.18 -0.84,0.55 a 0.48,0.48 0 0 0 0.25,0.41 3.8,3.8 0 0 0 0.9,0.37 3.26,3.26 0 0 1 1.45,0.82 1.84,1.84 0 0 1 0.46,1.29 2,2 0 0 1 -0.8,1.63 3.65,3.65 0 0 1 -2.23,0.61 A 5.07,5.07 0 0 1 74.3,67 Z"
         id="path4"
         style="fill:#ffffff;fill-opacity:1" /><path
         class="cls-1"
         d="m 81.28,59.14 2.12,-0.57 v 1.87 H 85 V 62 h -1.6 v 2.42 a 1.76,1.76 0 0 0 0.2,1 0.78,0.78 0 0 0 0.66,0.27 2.33,2.33 0 0 0 0.66,-0.07 v 1.65 a 4.16,4.16 0 0 1 -1.42,0.2 2.25,2.25 0 0 1 -1.61,-0.59 2.75,2.75 0 0 1 -0.63,-2.07 V 62 h -0.93 v -1.6 h 0.93 v -1.3 z"
         id="path5"
         style="fill:#ffffff;fill-opacity:1" /><path
         class="cls-2"
         d="m 88.41,67.31 h -2.18 v -6.87 h 2.18 z m 0.12,-8.91 a 1.07,1.07 0 0 1 -0.33,0.81 1.22,1.22 0 0 1 -0.89,0.33 1.2,1.2 0 0 1 -0.88,-0.33 1,1 0 0 1 -0.34,-0.81 1.08,1.08 0 0 1 0.34,-0.82 1.25,1.25 0 0 1 0.88,-0.32 1.24,1.24 0 0 1 0.88,0.32 1.08,1.08 0 0 1 0.34,0.82 z"
         id="path6"
         style="fill:#ffffff;fill-opacity:1" /><path
         class="cls-1"
         d="m 90.45,59.14 2.13,-0.57 v 1.87 h 1.56 V 62 h -1.56 v 2.42 a 1.67,1.67 0 0 0 0.2,1 0.75,0.75 0 0 0 0.65,0.27 2.36,2.36 0 0 0 0.67,-0.07 v 1.65 a 4.12,4.12 0 0 1 -1.42,0.2 2.26,2.26 0 0 1 -1.61,-0.59 2.75,2.75 0 0 1 -0.63,-2.07 V 62 h -0.92 v -1.6 h 0.92 v -1.3 z"
         id="path7"
         style="fill:#ffffff;fill-opacity:1" /><path
         class="cls-1"
         d="m 102.05,60.44 v 4.65 q 0,1.11 0.06,2.22 h -1.89 l -0.1,-1 h -0.05 A 2.44,2.44 0 0 1 97.86,67.47 2.26,2.26 0 0 1 96,66.7 3.35,3.35 0 0 1 95.34,64.47 v -4 h 2.18 v 3.67 c 0,1.07 0.38,1.61 1.13,1.61 a 1.2,1.2 0 0 0 1.19,-1.22 v -4.09 z"
         id="path8"
         style="fill:#ffffff;fill-opacity:1" /><path
         class="cls-1"
         d="m 104.1,59.14 2.13,-0.57 v 1.87 h 1.56 V 62 h -1.56 v 2.42 a 1.67,1.67 0 0 0 0.2,1 0.75,0.75 0 0 0 0.65,0.27 2.28,2.28 0 0 0 0.66,-0.07 v 1.65 a 4.12,4.12 0 0 1 -1.42,0.2 2.26,2.26 0 0 1 -1.61,-0.59 2.75,2.75 0 0 1 -0.63,-2.07 V 62 h -0.92 v -1.6 h 0.92 v -1.3 z"
         id="path9"
         style="fill:#ffffff;fill-opacity:1" /><path
         class="cls-1"
         d="m 118.92,65.34 0.34,1.69 a 6.31,6.31 0 0 1 -2.55,0.44 5.23,5.23 0 0 1 -3.71,-1.31 4.56,4.56 0 0 1 -1.37,-3.46 4.74,4.74 0 0 1 1.49,-3.65 5.49,5.49 0 0 1 3.84,-1.37 5.67,5.67 0 0 1 2.46,0.44 l -0.45,1.71 a 4.82,4.82 0 0 0 -1.91,-0.38 3.15,3.15 0 0 0 -2.28,0.83 3.06,3.06 0 0 0 -0.86,2.29 3,3 0 0 0 0.84,2.26 3.12,3.12 0 0 0 2.31,0.84 5.15,5.15 0 0 0 1.9,-0.33 z"
         id="path10"
         style="fill:#ffffff;fill-opacity:1" /><path
         class="cls-2"
         d="m 126.23,63.25 v 2.39 a 10.53,10.53 0 0 0 0.11,1.67 h -2 l -0.13,-0.69 h -0.05 a 2.51,2.51 0 0 1 -2,0.85 2.26,2.26 0 0 1 -1.65,-0.62 2,2 0 0 1 -0.63,-1.49 2.18,2.18 0 0 1 1.07,-2 5.71,5.71 0 0 1 3.08,-0.69 v -0.08 c 0,-0.57 -0.43,-0.86 -1.3,-0.86 a 3.9,3.9 0 0 0 -2,0.52 l -0.41,-1.37 a 5.52,5.52 0 0 1 2.74,-0.64 3.15,3.15 0 0 1 2.3,0.77 2.94,2.94 0 0 1 0.78,2.2 z m -2.09,1.52 v -0.71 c -1.38,0 -2.07,0.36 -2.07,1.07 a 0.78,0.78 0 0 0 0.23,0.6 0.89,0.89 0 0 0 0.64,0.22 1.29,1.29 0 0 0 0.82,-0.31 1.08,1.08 0 0 0 0.38,-0.87 z"
         id="path11"
         style="fill:#ffffff;fill-opacity:1" /><path
         class="cls-1"
         d="m 128.05,59.14 2.12,-0.57 v 1.87 h 1.56 V 62 h -1.56 v 2.42 a 1.76,1.76 0 0 0 0.2,1 0.76,0.76 0 0 0 0.66,0.27 2.33,2.33 0 0 0 0.66,-0.07 v 1.65 a 4.08,4.08 0 0 1 -1.42,0.2 2.28,2.28 0 0 1 -1.61,-0.59 2.8,2.8 0 0 1 -0.62,-2.07 V 62 h -0.93 v -1.6 h 0.93 v -1.3 z"
         id="path12"
         style="fill:#ffffff;fill-opacity:1" /><path
         class="cls-2"
         d="m 138.84,63.25 v 2.39 a 9.31,9.31 0 0 0 0.12,1.67 h -2 l -0.12,-0.69 h -0.06 a 2.48,2.48 0 0 1 -2,0.85 2.28,2.28 0 0 1 -1.65,-0.62 2,2 0 0 1 -0.63,-1.49 2.18,2.18 0 0 1 1.07,-2 5.71,5.71 0 0 1 3.08,-0.69 v -0.08 c 0,-0.57 -0.43,-0.86 -1.3,-0.86 a 3.9,3.9 0 0 0 -1.95,0.52 L 133,60.92 a 5.52,5.52 0 0 1 2.74,-0.64 3.15,3.15 0 0 1 2.3,0.77 2.94,2.94 0 0 1 0.78,2.2 z m -2.09,1.52 v -0.71 c -1.38,0 -2.07,0.36 -2.07,1.07 a 0.78,0.78 0 0 0 0.23,0.6 0.89,0.89 0 0 0 0.64,0.22 1.29,1.29 0 0 0 0.82,-0.31 1.08,1.08 0 0 0 0.38,-0.87 z"
         id="path13"
         style="fill:#ffffff;fill-opacity:1" /><polygon
         class="cls-1"
         points="142.78,57.3 142.78,67.31 140.6,67.31 140.6,57.3 "
         id="polygon13"
         style="fill:#ffffff;fill-opacity:1" /><path
         class="cls-2"
         d="m 150.39,63.25 v 2.39 a 9.31,9.31 0 0 0 0.12,1.67 h -2 l -0.12,-0.69 h -0.06 a 2.48,2.48 0 0 1 -2,0.85 2.26,2.26 0 0 1 -1.64,-0.62 2,2 0 0 1 -0.64,-1.49 2.18,2.18 0 0 1 1.07,-2 5.71,5.71 0 0 1 3.08,-0.69 v -0.08 c 0,-0.57 -0.43,-0.86 -1.29,-0.86 a 3.91,3.91 0 0 0 -2,0.52 l -0.41,-1.37 a 5.54,5.54 0 0 1 2.75,-0.64 3.14,3.14 0 0 1 2.29,0.77 2.94,2.94 0 0 1 0.78,2.2 z m -2.09,1.52 v -0.71 c -1.38,0 -2.07,0.36 -2.07,1.07 a 0.75,0.75 0 0 0 0.24,0.6 0.86,0.86 0 0 0 0.64,0.22 1.28,1.28 0 0 0 0.81,-0.31 1.08,1.08 0 0 0 0.38,-0.87 z m -3.18,-7.31 h 2 l 1.24,2.15 h -1.49 l -1.76,-2.15 z"
         id="path14"
         style="fill:#ffffff;fill-opacity:1" /><path
         class="cls-2"
         d="m 159.75,57.3 h 2.18 v 8 c 0,0.75 0,1.43 0,2 H 160 l -0.08,-1 v 0 a 2.44,2.44 0 0 1 -2.25,1.2 2.77,2.77 0 0 1 -2.15,-1 3.71,3.71 0 0 1 -0.87,-2.54 3.81,3.81 0 0 1 0.92,-2.66 3,3 0 0 1 2.26,-1 2.17,2.17 0 0 1 1.88,0.79 v 0 -3.79 z m 0,6.89 v -0.8 a 1.52,1.52 0 0 0 -0.37,-1 1.26,1.26 0 0 0 -1,-0.41 1.37,1.37 0 0 0 -1.13,0.53 2.2,2.2 0 0 0 -0.41,1.4 2.06,2.06 0 0 0 0.41,1.36 1.37,1.37 0 0 0 1.12,0.51 1.43,1.43 0 0 0 0.93,-0.37 1.5,1.5 0 0 0 0.42,-1.18 z"
         id="path15"
         style="fill:#ffffff;fill-opacity:1" /><polygon
         class="cls-1"
         points="164.9,61.39 163.62,61.39 163.3,57.57 165.22,57.57 "
         id="polygon15"
         style="fill:#ffffff;fill-opacity:1" /><path
         class="cls-2"
         d="m 175.7,62.49 a 5,5 0 0 1 -1.33,3.62 4.65,4.65 0 0 1 -3.48,1.36 4.44,4.44 0 0 1 -3.37,-1.36 4.84,4.84 0 0 1 -1.28,-3.47 4.94,4.94 0 0 1 1.33,-3.56 4.57,4.57 0 0 1 3.45,-1.4 4.47,4.47 0 0 1 3.4,1.35 4.83,4.83 0 0 1 1.28,3.46 z m -7.17,0.1 a 3.65,3.65 0 0 0 0.67,2.28 2.2,2.2 0 0 0 3.52,0 4.3,4.3 0 0 0 0,-4.58 2.19,2.19 0 0 0 -3.52,0 3.73,3.73 0 0 0 -0.67,2.3 z"
         id="path16"
         style="fill:#ffffff;fill-opacity:1" /><path
         class="cls-1"
         d="m 177.08,67.31 v -4.67 c 0,-0.67 0,-1.41 -0.06,-2.2 h 1.88 l 0.1,1 h 0.06 a 2.48,2.48 0 0 1 2.18,-1.13 2.31,2.31 0 0 1 1.84,0.79 3.23,3.23 0 0 1 0.69,2.21 v 4 h -2.18 v -3.75 q 0,-1.53 -1.14,-1.53 a 1.14,1.14 0 0 0 -0.83,0.35 1.32,1.32 0 0 0 -0.37,1 v 3.93 z"
         id="path17"
         style="fill:#ffffff;fill-opacity:1" /><path
         class="cls-1"
         d="m 190.54,65.54 0.27,1.59 a 5.26,5.26 0 0 1 -2,0.34 3.77,3.77 0 0 1 -2.71,-1 3.37,3.37 0 0 1 -1,-2.57 3.45,3.45 0 0 1 1.09,-2.63 4.11,4.11 0 0 1 3,-1 5,5 0 0 1 1.7,0.28 l -0.35,1.61 a 3.2,3.2 0 0 0 -1.25,-0.23 2,2 0 0 0 -1.36,3.31 2,2 0 0 0 1.4,0.51 3.64,3.64 0 0 0 1.29,-0.22 z"
         id="path18"
         style="fill:#ffffff;fill-opacity:1" /><path
         class="cls-2"
         d="m 198.73,63.8 a 3.47,3.47 0 0 1 -1.06,2.67 4.06,4.06 0 0 1 -5.31,0 3.36,3.36 0 0 1 -1,-2.57 3.52,3.52 0 0 1 1,-2.64 3.85,3.85 0 0 1 2.76,-1 3.56,3.56 0 0 1 2.61,1 3.41,3.41 0 0 1 1,2.53 z m -5.17,0.08 a 2.56,2.56 0 0 0 0.39,1.48 1.26,1.26 0 0 0 1.07,0.56 1.24,1.24 0 0 0 1,-0.56 2.53,2.53 0 0 0 0.4,-1.49 2.63,2.63 0 0 0 -0.38,-1.47 1.22,1.22 0 0 0 -1.06,-0.57 1.24,1.24 0 0 0 -1.08,0.57 2.58,2.58 0 0 0 -0.39,1.48 z"
         id="path19"
         style="fill:#ffffff;fill-opacity:1" /><polygon
         class="cls-1"
         points="202.25,57.3 202.25,67.31 200.07,67.31 200.07,57.3 "
         id="polygon19"
         style="fill:#ffffff;fill-opacity:1" /><path
         class="cls-2"
         d="m 211,63.8 a 3.47,3.47 0 0 1 -1.06,2.67 4.06,4.06 0 0 1 -5.31,0 3.36,3.36 0 0 1 -1,-2.57 3.52,3.52 0 0 1 1,-2.64 3.86,3.86 0 0 1 2.76,-1 3.56,3.56 0 0 1 2.61,1 3.37,3.37 0 0 1 1,2.53 z m -5.17,0.08 a 2.49,2.49 0 0 0 0.4,1.48 1.24,1.24 0 0 0 1.06,0.56 1.23,1.23 0 0 0 1.05,-0.56 2.46,2.46 0 0 0 0.4,-1.49 2.63,2.63 0 0 0 -0.38,-1.47 1.2,1.2 0 0 0 -1.05,-0.57 1.24,1.24 0 0 0 -1.09,0.57 2.58,2.58 0 0 0 -0.39,1.48 z"
         id="path20"
         style="fill:#ffffff;fill-opacity:1" /><path
         class="cls-2"
         d="m 219.06,62.48 v 3.81 a 4.22,4.22 0 0 1 -0.93,3 4,4 0 0 1 -3,1 5.42,5.42 0 0 1 -2.56,-0.54 l 0.44,-1.65 a 4.13,4.13 0 0 0 2.06,0.53 1.9,1.9 0 0 0 1.36,-0.46 1.8,1.8 0 0 0 0.49,-1.35 v -0.45 0 a 2.27,2.27 0 0 1 -1.93,0.91 2.8,2.8 0 0 1 -2.15,-0.93 3.47,3.47 0 0 1 -0.84,-2.41 3.72,3.72 0 0 1 0.93,-2.61 2.93,2.93 0 0 1 2.27,-1 2.15,2.15 0 0 1 2,1 v 0 l 0.06,-0.83 h 1.89 q -0.06,0.81 -0.06,2 z m -2.18,1.71 v -0.91 a 1.39,1.39 0 0 0 -0.34,-1 1.15,1.15 0 0 0 -0.91,-0.39 1.26,1.26 0 0 0 -1,0.53 2.19,2.19 0 0 0 -0.42,1.41 2.09,2.09 0 0 0 0.39,1.3 1.27,1.27 0 0 0 1.06,0.52 1.3,1.3 0 0 0 0.85,-0.33 1.4,1.4 0 0 0 0.4,-1.15 z"
         id="path21"
         style="fill:#ffffff;fill-opacity:1" /><path
         class="cls-2"
         d="m 223,67.31 h -2.18 V 60.44 H 223 Z m 0.12,-8.91 a 1.07,1.07 0 0 1 -0.33,0.81 1.22,1.22 0 0 1 -0.89,0.33 1.2,1.2 0 0 1 -0.88,-0.33 1,1 0 0 1 -0.34,-0.81 1.08,1.08 0 0 1 0.34,-0.82 1.25,1.25 0 0 1 0.88,-0.32 1.24,1.24 0 0 1 0.88,0.32 1.08,1.08 0 0 1 0.34,0.82 z"
         id="path22"
         style="fill:#ffffff;fill-opacity:1" /><path
         class="cls-2"
         d="m 230.63,63.25 v 2.39 a 10.53,10.53 0 0 0 0.11,1.67 h -2 l -0.13,-0.69 v 0 a 2.51,2.51 0 0 1 -2,0.85 2.26,2.26 0 0 1 -1.65,-0.62 2,2 0 0 1 -0.63,-1.49 2.18,2.18 0 0 1 1.07,-2 5.71,5.71 0 0 1 3.08,-0.69 v -0.08 c 0,-0.57 -0.44,-0.86 -1.3,-0.86 a 3.9,3.9 0 0 0 -1.95,0.52 l -0.41,-1.37 a 5.5,5.5 0 0 1 2.74,-0.64 3.16,3.16 0 0 1 2.3,0.77 2.94,2.94 0 0 1 0.78,2.2 z m -2.09,1.52 v -0.71 c -1.38,0 -2.07,0.36 -2.07,1.07 a 0.78,0.78 0 0 0 0.23,0.6 0.89,0.89 0 0 0 0.64,0.22 1.29,1.29 0 0 0 0.82,-0.31 1.08,1.08 0 0 0 0.38,-0.87 z"
         id="path23"
         style="fill:#ffffff;fill-opacity:1" /><path
         class="cls-3"
         d="m 16,12.24 c 1.18,2.79 5.72,3.52 10.14,1.64 4.42,-1.88 7,-5.65 5.87,-8.44 C 30.88,2.65 26.24,1.93 21.82,3.8 c -4.42,1.87 -7,5.66 -5.86,8.44 z m -4.64,4.09 C 9.24,11.44 13.61,4.9 21.07,1.73 28.53,-1.44 36.27,0 38.35,4.86 40.43,9.72 36.06,16.29 28.6,19.46 21.14,22.63 13.4,21.23 11.32,16.33 Z"
         id="path24" /><path
         class="cls-4"
         d="m 16,12.24 c 1.18,2.79 5.72,3.52 10.14,1.64 4.42,-1.88 7,-5.65 5.87,-8.44 C 30.88,2.65 26.24,1.93 21.82,3.8 c -4.42,1.87 -7,5.66 -5.86,8.44 z m -4.64,4.09 C 9.24,11.44 13.61,4.9 21.07,1.73 28.53,-1.44 36.27,0 38.35,4.86 40.43,9.72 36.06,16.29 28.6,19.46 21.14,22.63 13.4,21.23 11.32,16.33 Z"
         id="path25" /><path
         class="cls-5"
         d="m 23.2,49.47 c 0,5 4.8,9 10.71,9 5.91,0 10.7,-4 10.7,-9 0,-5 -4.79,-9 -10.7,-9 -5.91,0 -10.71,4 -10.71,9 z m -8,-2.58 c 0,-8.69 8.35,-15.73 18.65,-15.73 10.3,0 18.66,7 18.66,15.73 0,8.73 -8.35,15.73 -18.66,15.73 -10.31,0 -18.65,-7 -18.65,-15.73 z"
         id="path26" /><path
         class="cls-6"
         d="m 23.2,49.47 c 0,5 4.8,9 10.71,9 5.91,0 10.7,-4 10.7,-9 0,-5 -4.79,-9 -10.7,-9 -5.91,0 -10.71,4 -10.71,9 z m -8,-2.58 c 0,-8.69 8.35,-15.73 18.65,-15.73 10.3,0 18.66,7 18.66,15.73 0,8.73 -8.35,15.73 -18.66,15.73 -10.31,0 -18.65,-7 -18.65,-15.73 z"
         id="path27" /><path
         class="cls-7"
         d="m 1.56,35.71 c 0.44,3.13 2,5.5 3.56,5.28 1.56,-0.22 2.41,-2.92 2,-6.05 -0.41,-3.13 -2,-5.5 -3.56,-5.28 -1.56,0.22 -2.4,2.92 -2,6.05 z M 0.23,36 C -0.55,30.44 1.07,25.62 3.85,25.23 6.63,24.84 9.52,29 10.3,34.54 11.08,40.08 9.46,44.92 6.68,45.31 3.9,45.7 1,41.51 0.23,36 Z"
         id="path28" /><path
         class="cls-8"
         d="m 1.56,35.71 c 0.44,3.13 2,5.5 3.56,5.28 1.56,-0.22 2.41,-2.92 2,-6.05 -0.41,-3.13 -2,-5.5 -3.56,-5.28 -1.56,0.22 -2.4,2.92 -2,6.05 z M 0.23,36 C -0.55,30.44 1.07,25.62 3.85,25.23 6.63,24.84 9.52,29 10.3,34.54 11.08,40.08 9.46,44.92 6.68,45.31 3.9,45.7 1,41.51 0.23,36 Z"
         id="path29" /></g></g></svg>
