<svg width="35" height="36" viewBox="0 0 35 36" fill="none" xmlns="http://www.w3.org/2000/svg">
<path d="M32.8125 5.70216V8.82714C32.8125 11.5811 25.9538 13.8271 17.5 13.8271C9.0462 13.8271 2.1875 11.5811 2.1875 8.82714V5.70216C2.1875 2.94823 9.0462 0.702148 17.5 0.702148C25.9538 0.702148 32.8125 2.94823 32.8125 5.70216ZM32.8125 12.7334V19.7646C32.8125 22.5186 25.9538 24.7646 17.5 24.7646C9.0462 24.7646 2.1875 22.5186 2.1875 19.7646V12.7334C5.47729 14.999 11.4986 16.0538 17.5 16.0538C23.5014 16.0538 29.5226 14.999 32.8125 12.7334ZM32.8125 23.6709V30.7021C32.8125 33.4561 25.9538 35.7021 17.5 35.7021C9.0462 35.7021 2.1875 33.4561 2.1875 30.7021V23.6709C5.47729 25.9365 11.4986 26.9912 17.5 26.9912C23.5014 26.9912 29.5226 25.9365 32.8125 23.6709Z" fill="white"/>
</svg>
